<?xml version="1.0" encoding="utf-8"?>
<!-- Generator: Adobe Illustrator 16.0.0, SVG Export Plug-In . SVG Version: 6.00 Build 0)  -->
<!DOCTYPE svg PUBLIC "-//W3C//DTD SVG 1.1//EN" "http://www.w3.org/Graphics/SVG/1.1/DTD/svg11.dtd">
<svg version="1.1" id="Layer_1" xmlns="http://www.w3.org/2000/svg" xmlns:xlink="http://www.w3.org/1999/xlink" x="0px" y="0px"
	 width="441px" height="458.59px" viewBox="-45 -46.795 441 458.59" enable-background="new -45 -46.795 441 458.59"
	 xml:space="preserve">
<circle fill="#009DD8" cx="175.5" cy="182.5" r="190"/>
<g id="Layer_1_1_">
</g>
<g>
	<path fill="#FFFFFF" d="M207.71,109.158c-47.122,0-85.324,38.197-85.324,85.312c0,47.135,38.202,85.324,85.324,85.324
		c47.129,0,85.323-38.189,85.323-85.324C293.033,147.355,254.839,109.158,207.71,109.158z M207.71,250.506
		c-30.944,0-56.031-25.08-56.031-56.03c0-30.942,25.086-56.028,56.031-56.028c30.951,0,56.031,25.086,56.031,56.028
		C263.741,225.426,238.661,250.506,207.71,250.506z"/>
	<path fill="#FFFFFF" d="M73.966,277.673c0,1.171,0.952,2.122,2.125,2.122h25.095c1.173,0,2.125-0.951,2.125-2.122V131.917H73.966
		V277.673z"/>
	<path fill="#FFFFFF" d="M73.966,85.328c0-1.171,0.952-2.123,2.124-2.123h25.096c1.172,0,2.124,0.951,2.124,2.123v21.384
		l-22.058,26.245h-7.286V85.328z"/>
</g>
</svg>
